# xmcd
#
# Track frame offsets: 
#        150
#        16366
#        33085
#        61728
#
# Disc length: 1255 seconds
#
# Revision: 4
# Processed by: cddbd v1.5.2PL0 Copyright (c) Steve Scherf et al.
# Submitted via: ExactAudioCopy v1.0b3
#
DISCID=2304e504
DTITLE=LeAnn Rimes - Life Goes On (The Remixes)
DYEAR=2002
DGENRE=Club
TTITLE0=Life Goes On
TTITLE1=Life Goes On [Almighty Mix]
TTITLE2=Life Goes On [Amato and Sheremet Club Mix]
TTITLE3=Life Goes On [29 Palms Mix]
EXTD=YEAR: 2002
EXTT0=
EXTT1=
EXTT2=
EXTT3=
PLAYORDER=
